<svg width="256" height="256" viewBox="0 0 256 256" xmlns="http://www.w3.org/2000/svg">
    <defs>
        <!-- Background gradients -->
        <radialGradient id="bgGlow" cx="50%" cy="38%" r="70%">
            <stop offset="0%" stop-color="#8A4A27"/>
            <stop offset="45%" stop-color="#5C321F"/>
            <stop offset="100%" stop-color="#2E1811"/>
        </radialGradient>

        <linearGradient id="frameGrad" x1="0" y1="0" x2="1" y2="1">
            <stop offset="0%" stop-color="#F0A84E"/>
            <stop offset="35%" stop-color="#B96A32"/>
            <stop offset="70%" stop-color="#7A3E22"/>
            <stop offset="100%" stop-color="#F6C06D"/>
        </linearGradient>

        <!-- Old book/tab gradients -->
        <linearGradient id="tabBackGrad" x1="0" y1="0" x2="1" y2="1">
            <stop offset="0%" stop-color="#A85B2E"/>
            <stop offset="45%" stop-color="#7C3F24"/>
            <stop offset="100%" stop-color="#442318"/>
        </linearGradient>

        <linearGradient id="tabMidGrad" x1="0" y1="0" x2="1" y2="1">
            <stop offset="0%" stop-color="#D47A35"/>
            <stop offset="35%" stop-color="#A85229"/>
            <stop offset="75%" stop-color="#6B321E"/>
            <stop offset="100%" stop-color="#3B1D14"/>
        </linearGradient>

        <linearGradient id="tabFrontGrad" x1="0" y1="0" x2="1" y2="1">
            <stop offset="0%" stop-color="#F1A64B"/>
            <stop offset="28%" stop-color="#D87932"/>
            <stop offset="58%" stop-color="#9D4B25"/>
            <stop offset="100%" stop-color="#4B2417"/>
        </linearGradient>

        <linearGradient id="paperGrad" x1="0" y1="0" x2="0" y2="1">
            <stop offset="0%" stop-color="#F6C780"/>
            <stop offset="45%" stop-color="#C9823E"/>
            <stop offset="100%" stop-color="#704024"/>
        </linearGradient>

        <linearGradient id="goldGrad" x1="0" y1="0" x2="1" y2="1">
            <stop offset="0%" stop-color="#FFE19A"/>
            <stop offset="45%" stop-color="#D99437"/>
            <stop offset="100%" stop-color="#8A4A20"/>
        </linearGradient>

        <linearGradient id="bookBrown" x1="0" y1="0" x2="1" y2="1">
            <stop offset="0%" stop-color="#7D4427"/>
            <stop offset="50%" stop-color="#4B281A"/>
            <stop offset="100%" stop-color="#2D1710"/>
        </linearGradient>

        <linearGradient id="bookOrange" x1="0" y1="0" x2="1" y2="1">
            <stop offset="0%" stop-color="#F2A14A"/>
            <stop offset="45%" stop-color="#B95D2E"/>
            <stop offset="100%" stop-color="#5D2B1A"/>
        </linearGradient>

        <linearGradient id="bookOchre" x1="0" y1="0" x2="1" y2="1">
            <stop offset="0%" stop-color="#C98438"/>
            <stop offset="45%" stop-color="#805029"/>
            <stop offset="100%" stop-color="#342016"/>
        </linearGradient>

        <!-- Subtle vintage paper texture -->
        <filter id="grain">
            <feTurbulence type="fractalNoise" baseFrequency="0.9" numOctaves="3" seed="12"/>
            <feColorMatrix type="saturate" values="0"/>
            <feComponentTransfer>
                <feFuncA type="table" tableValues="0 0.08"/>
            </feComponentTransfer>
            <feBlend mode="multiply"/>
        </filter>

        <!-- Shadows -->
        <filter id="deepShadow" x="-25%" y="-25%" width="150%" height="150%">
            <feDropShadow dx="0" dy="8" stdDeviation="6" flood-color="#140907" flood-opacity="0.55"/>
        </filter>

        <filter id="softShadow" x="-20%" y="-20%" width="140%" height="140%">
            <feDropShadow dx="0" dy="4" stdDeviation="3" flood-color="#170B07" flood-opacity="0.35"/>
        </filter>
    </defs>

    <!-- Main background -->
    <rect width="256" height="256" rx="44" fill="url(#bgGlow)"/>

    <!-- Texture overlay -->
    <rect width="256" height="256" rx="44" fill="#000000" opacity="0.18" filter="url(#grain)"/>

    <!-- Retro outer frame -->
    <rect x="14" y="14" width="228" height="228" rx="38" fill="none" stroke="url(#frameGrad)" stroke-width="7"/>
    <rect x="27" y="27" width="202" height="202" rx="29" fill="none" stroke="#3A1E14" stroke-width="4" opacity="0.75"/>

    <!-- Decorative library corner ornaments -->
    <g fill="none" stroke="url(#goldGrad)" stroke-width="3" stroke-linecap="round" opacity="0.9">
        <path d="M42 58 C42 45 50 42 60 42"/>
        <path d="M214 58 C214 45 206 42 196 42"/>
        <path d="M42 198 C42 211 50 214 60 214"/>
        <path d="M214 198 C214 211 206 214 196 214"/>
    </g>

    <!-- Back browser tab / old book cover -->
    <g filter="url(#deepShadow)">
        <path d="M67 60
             Q67 49 79 49
             H112
             Q121 49 127 57
             L136 70
             H191
             Q204 70 204 83
             V169
             Q204 182 191 182
             H79
             Q67 182 67 169
             Z"
              fill="url(#tabBackGrad)"/>
        <path d="M78 74 H190" stroke="#E99A46" stroke-width="2" opacity="0.45"/>
        <path d="M82 92 H188" stroke="#3A1C12" stroke-width="3" opacity="0.35"/>
    </g>

    <!-- Middle browser tab / old book cover -->
    <g filter="url(#softShadow)">
        <path d="M51 72
             Q51 60 63 60
             H101
             Q110 60 116 68
             L125 81
             H181
             Q194 81 194 94
             V178
             Q194 191 181 191
             H63
             Q51 191 51 178
             Z"
              fill="url(#tabMidGrad)"/>
        <path d="M64 87 H181" stroke="#F4B35D" stroke-width="2" opacity="0.5"/>
        <path d="M65 104 H181" stroke="#3C1D13" stroke-width="3" opacity="0.28"/>
    </g>

    <!-- Front browser tab / archive shelf -->
    <g filter="url(#deepShadow)">
        <path d="M36 88
             Q36 76 49 76
             H91
             Q101 76 107 85
             L116 99
             H202
             Q215 99 215 112
             V188
             Q215 201 202 201
             H49
             Q36 201 36 188
             Z"
              fill="url(#tabFrontGrad)"/>

        <!-- Highlight along tab top -->
        <path d="M51 91 H92 Q98 91 102 97 L109 108 H201"
              fill="none"
              stroke="#FFD083"
              stroke-width="3"
              stroke-linecap="round"
              opacity="0.75"/>

        <!-- Dark bottom lip -->
        <path d="M42 184 H210 V190 Q210 196 202 196 H49 Q42 196 42 188 Z"
              fill="#2D1710"
              opacity="0.45"/>
    </g>

    <!-- Books as tab contents -->
    <g filter="url(#softShadow)">
        <!-- Shelf shadow -->
        <rect x="55" y="169" width="146" height="9" rx="4" fill="#24110B" opacity="0.45"/>

        <!-- Book 1 -->
        <rect x="58" y="114" width="19" height="58" rx="4" fill="url(#bookBrown)"/>
        <path d="M63 121 V164" stroke="#C9823E" stroke-width="2" stroke-linecap="round"/>
        <circle cx="67" cy="133" r="2.2" fill="#E7A95A"/>
        <circle cx="67" cy="153" r="2.2" fill="#E7A95A"/>

        <!-- Book 2 -->
        <rect x="80" y="103" width="25" height="69" rx="4" fill="url(#bookOrange)"/>
        <path d="M86 111 H99" stroke="#FFD083" stroke-width="2" stroke-linecap="round"/>
        <path d="M86 162 H99" stroke="#FFD083" stroke-width="2" stroke-linecap="round"/>
        <path d="M93 116 V155" stroke="#5A2B1A" stroke-width="3" opacity="0.45"/>

        <!-- Book 3, leaning -->
        <path d="M111 111
             Q111 107 115 107
             H132
             Q136 107 136 111
             L132 172
             H107
             Z"
              fill="url(#bookOchre)"/>
        <path d="M118 116 L115 164" stroke="#F1B866" stroke-width="2" stroke-linecap="round"/>
        <path d="M126 116 L123 164" stroke="#3A1D13" stroke-width="2" opacity="0.35"/>

        <!-- Book 4 -->
        <rect x="138" y="99" width="28" height="73" rx="4" fill="url(#bookBrown)"/>
        <path d="M145 109 H160" stroke="#E09B47" stroke-width="2" stroke-linecap="round"/>
        <path d="M145 123 H160" stroke="#E09B47" stroke-width="2" stroke-linecap="round"/>
        <path d="M152 134 V162" stroke="#DFA156" stroke-width="3" stroke-linecap="round"/>

        <!-- Book 5 -->
        <rect x="170" y="119" width="21" height="53" rx="4" fill="url(#bookOrange)"/>
        <path d="M176 126 V163" stroke="#FFE19A" stroke-width="2" stroke-linecap="round"/>
        <path d="M184 126 V163" stroke="#5A2B1A" stroke-width="2" opacity="0.35"/>
    </g>

    <!-- Small archived tab markers -->
    <g opacity="0.88">
        <rect x="65" y="83" width="31" height="13" rx="5" fill="#F8C477"/>
        <rect x="103" y="88" width="24" height="10" rx="4" fill="#B76330"/>
        <rect x="135" y="88" width="35" height="10" rx="4" fill="#E49342"/>
    </g>

    <!-- Center monogram plaque -->
    <g filter="url(#softShadow)">
        <rect x="75" y="184" width="106" height="28" rx="10" fill="#2B160F"/>
        <rect x="76" y="188" width="102" height="20" rx="7" fill="none" stroke="url(#goldGrad)" stroke-width="2"/>
        <text x="128" y="203"
              font-family="Georgia, 'Times New Roman', serif"
              font-size="17"
              font-weight="700"
              text-anchor="middle"
              fill="#FFD083"
              letter-spacing="2">
            Arhivum
        </text>
    </g>

    <!-- Subtle top shine -->
    <path d="M48 36
           C82 21 139 24 184 43
           C151 36 94 37 49 53
           Q39 56 48 36 Z"
          fill="#FFC06D"
          opacity="0.12"/>

    <!-- Vintage vignette -->
    <rect width="256" height="256" rx="44" fill="none" stroke="#1D0E0A" stroke-width="10" opacity="0.28"/>
</svg>